<?xml version="1.0" encoding="UTF-8" standalone="no"?>
<!DOCTYPE svg PUBLIC "-//W3C//DTD SVG 1.1//EN"
 "http://www.w3.org/Graphics/SVG/1.1/DTD/svg11.dtd">
<!-- Generated by graphviz version 2.50.0 (20211205.1242)
 -->
<!-- Title: snakemake_dag Pages: 1 -->
<svg width="516pt" height="116pt"
 viewBox="0.00 0.00 516.00 116.00" xmlns="http://www.w3.org/2000/svg" xmlns:xlink="http://www.w3.org/1999/xlink">
<g id="graph0" class="graph" transform="scale(1 1) rotate(0) translate(4 112)">
<title>snakemake_dag</title>
<polygon fill="white" stroke="transparent" points="-4,4 -4,-112 512,-112 512,4 -4,4"/>
<!-- 0 -->
<g id="node1" class="node">
<title>0</title>
<path fill="none" stroke="#88d856" stroke-width="2" stroke-dasharray="5,2" d="M289.5,-36C289.5,-36 259.5,-36 259.5,-36 253.5,-36 247.5,-30 247.5,-24 247.5,-24 247.5,-12 247.5,-12 247.5,-6 253.5,0 259.5,0 259.5,0 289.5,0 289.5,0 295.5,0 301.5,-6 301.5,-12 301.5,-12 301.5,-24 301.5,-24 301.5,-30 295.5,-36 289.5,-36"/>
<text text-anchor="middle" x="274.5" y="-15.5" font-family="sans" font-size="10.00">all</text>
</g>
<!-- 1 -->
<g id="node2" class="node">
<title>1</title>
<path fill="none" stroke="#d85656" stroke-width="2" stroke-dasharray="5,2" d="M113,-108C113,-108 12,-108 12,-108 6,-108 0,-102 0,-96 0,-96 0,-84 0,-84 0,-78 6,-72 12,-72 12,-72 113,-72 113,-72 119,-72 125,-78 125,-84 125,-84 125,-96 125,-96 125,-102 119,-108 113,-108"/>
<text text-anchor="middle" x="62.5" y="-87.5" font-family="sans" font-size="10.00">spam_precision_recall</text>
</g>
<!-- 1&#45;&gt;0 -->
<g id="edge1" class="edge">
<title>1&#45;&gt;0</title>
<path fill="none" stroke="grey" stroke-width="2" d="M114.09,-71.97C152.35,-59.33 203.59,-42.41 237.76,-31.13"/>
<polygon fill="grey" stroke="grey" stroke-width="2" points="238.95,-34.42 247.35,-27.97 236.75,-27.78 238.95,-34.42"/>
</g>
<!-- 2 -->
<g id="node3" class="node">
<title>2</title>
<path fill="none" stroke="#d8bc56" stroke-width="2" stroke-dasharray="5,2" d="M262,-108C262,-108 155,-108 155,-108 149,-108 143,-102 143,-96 143,-96 143,-84 143,-84 143,-78 149,-72 155,-72 155,-72 262,-72 262,-72 268,-72 274,-78 274,-84 274,-84 274,-96 274,-96 274,-102 268,-108 262,-108"/>
<text text-anchor="middle" x="208.5" y="-87.5" font-family="sans" font-size="10.00">cancer_precision_recall</text>
</g>
<!-- 2&#45;&gt;0 -->
<g id="edge2" class="edge">
<title>2&#45;&gt;0</title>
<path fill="none" stroke="grey" stroke-width="2" d="M224.81,-71.7C232.81,-63.22 242.57,-52.86 251.32,-43.58"/>
<polygon fill="grey" stroke="grey" stroke-width="2" points="254.06,-45.78 258.37,-36.1 248.97,-40.98 254.06,-45.78"/>
</g>
<!-- 3 -->
<g id="node4" class="node">
<title>3</title>
<path fill="none" stroke="#56c1d8" stroke-width="2" stroke-dasharray="5,2" d="M376.5,-108C376.5,-108 304.5,-108 304.5,-108 298.5,-108 292.5,-102 292.5,-96 292.5,-96 292.5,-84 292.5,-84 292.5,-78 298.5,-72 304.5,-72 304.5,-72 376.5,-72 376.5,-72 382.5,-72 388.5,-78 388.5,-84 388.5,-84 388.5,-96 388.5,-96 388.5,-102 382.5,-108 376.5,-108"/>
<text text-anchor="middle" x="340.5" y="-87.5" font-family="sans" font-size="10.00">spam_roc_curve</text>
</g>
<!-- 3&#45;&gt;0 -->
<g id="edge3" class="edge">
<title>3&#45;&gt;0</title>
<path fill="none" stroke="grey" stroke-width="2" d="M324.19,-71.7C316.19,-63.22 306.43,-52.86 297.68,-43.58"/>
<polygon fill="grey" stroke="grey" stroke-width="2" points="300.03,-40.98 290.63,-36.1 294.94,-45.78 300.03,-40.98"/>
</g>
<!-- 4 -->
<g id="node5" class="node">
<title>4</title>
<path fill="none" stroke="#56d88a" stroke-width="2" stroke-dasharray="5,2" d="M496,-108C496,-108 419,-108 419,-108 413,-108 407,-102 407,-96 407,-96 407,-84 407,-84 407,-78 413,-72 419,-72 419,-72 496,-72 496,-72 502,-72 508,-78 508,-84 508,-84 508,-96 508,-96 508,-102 502,-108 496,-108"/>
<text text-anchor="middle" x="457.5" y="-87.5" font-family="sans" font-size="10.00">cancer_roc_curve</text>
</g>
<!-- 4&#45;&gt;0 -->
<g id="edge4" class="edge">
<title>4&#45;&gt;0</title>
<path fill="none" stroke="grey" stroke-width="2" d="M412.73,-71.88C381.46,-59.91 340.22,-44.14 310.95,-32.94"/>
<polygon fill="grey" stroke="grey" stroke-width="2" points="312.1,-29.64 301.51,-29.33 309.6,-36.17 312.1,-29.64"/>
</g>
</g>
</svg>
